<?xml version="1.0" encoding="utf-8"?>
<!-- Generator: Adobe Illustrator 22.0.0, SVG Export Plug-In . SVG Version: 6.00 Build 0)  -->
<svg version="1.1" id="Capa_1" xmlns="http://www.w3.org/2000/svg" xmlns:xlink="http://www.w3.org/1999/xlink" x="0px" y="0px"
	 viewBox="0 0 595.3 841.9" style="enable-background:new 0 0 595.3 841.9;" xml:space="preserve">
<style type="text/css">
	.st0{fill:#4396A3;}
	.st1{fill:yellow;}
	.st2{fill:orange;}
</style>
<circle class="st0" cx="166" cy="307" r="107.5"/>
<ellipse class="st1" cx="321" cy="15" rx="120" ry="400"/>
<g>
	<g>
		<path class="st2" d="M108,203.9c16.4-32.7,44-58.6,76.8-74.4c16.4-7.9,34.3-13.2,52.4-15.3c8.9-1,18-1.3,26.9-0.8
			c4.2,0.2,8.6,0.4,12.6,1.8c7.5,2.6,8.1,9.4,4.7,15.7c-5,9.1-14.5,16.6-22,23.5c-8.2,7.5-16.8,14.6-25.3,21.7
			c-16.1,13.5-31.7,27.4-46.1,42.8c-27.9,29.8-51.7,63.4-70.3,99.7c-2.7,5.2-5.3,10.5-7.7,15.8c-2.1,4.6-5,9.6-6,14.6
			c-1.9,9.2,6.2,13,14.1,12.6c12.5-0.7,25.1-3.6,37.5-5.4c13.8-2.1,27.6-4.1,41.4-6.2c-1-1-2.1-2.1-3.1-3.1
			c-3.9,10.5-7.7,23-0.8,33.1c5,7.2,13.6,10.2,22,11.1c10.6,1.1,21.2-1,31.5-3.2c12.1-2.6,24.1-5.9,35.7-10.1
			c44.9-16.3,85.1-46.7,103.9-91.8c10.1-24.2,13.1-51.1,6.6-76.6c-0.7-2.8-4.8-2.1-4.9,0.7c-1.1,20.5,23.3,33.7,38.8,41.7
			c19.2,10,41.7,17.8,63.6,18.1c9.8,0.1,20-1.8,28.2-7.5c7.8-5.5,12.9-13.9,16.2-22.7c7-19,6.4-40.5,1.1-59.8
			C513.3,98.4,418,54.1,339.3,75c-37.9,10.1-71.8,33.9-94.5,65.8c-26.5,37.2-32.9,82.9-37.7,127.2c-2.5,22.9-3.3,47.2-11.4,69
			c-7.6,20.6-23.7,34.8-44.3,41.8c-19.3,6.6-40,7.6-60.2,6.7c-23.5-1.1-47.8-5.5-67.8-18.6c-18.6-12.1-32.6-31.4-33.8-54
			c-1.3-23.1,8.5-46.2,20.8-65.3c21.6-33.5,56-58.4,94.4-68.9c9.7-2.6,19.6-4.3,29.6-5c3.2-0.2,3.2-5.2,0-5
			c-38.3,2.7-74.8,19.4-102.6,45.6c-13.6,12.8-25.2,28-33.6,44.7c-9.9,19.6-16.7,42.4-12.1,64.3c8.9,42.7,53.6,62.3,92.9,66.3
			c36.2,3.7,82.8,1.7,108.5-28.2c13.6-15.8,18.1-36.5,20.7-56.7c3.1-23.8,4.8-47.8,8.4-71.6c3.6-23.2,9-46.5,19.4-67.7
			c8.7-17.8,20.8-33.8,35.3-47.2c29.8-27.6,69.5-43.9,110.2-43.6c42,0.3,83.9,17.3,113.8,46.9c29.4,29.2,49.6,75.6,34.5,116.7
			c-4.1,11-11.5,20.6-23,24.4c-10.8,3.5-22.6,2.4-33.5,0.3c-22.7-4.5-44.3-13.7-63.2-27c-8.6-6-17.8-14.4-17.2-25.7
			c-1.6,0.2-3.3,0.4-4.9,0.7c10.8,42.5-6.2,87.9-36.3,118.5c-31.2,31.7-75.5,49.6-119,56.3c-9.5,1.5-20.6,2-29.3-2.8
			c-13.3-7.3-9-22.9-4.7-34.5c0.7-2-1.4-3.3-3.1-3.1c-24.8,3.7-49.5,7.8-74.3,11c-5.1,0.7-13.3,1.4-12.4-6.2
			c0.6-5.3,4.5-11.3,6.8-16.1c4.5-9.6,9.4-19.1,14.7-28.3c20.6-36.4,46.4-69.7,76.5-98.7c15.9-15.4,33.4-29,50-43.6
			c8.2-7.2,16.6-14.6,23.8-22.9c5.1-5.8,10.5-14.3,6.9-22.2c-3.2-7.1-11.3-8.8-18.3-9.5c-9.2-0.9-18.5-0.8-27.7,0
			c-17.7,1.6-35,6-51.4,12.9c-36.9,15.6-68.5,43.8-86.5,79.8C102.2,204.3,106.5,206.8,108,203.9L108,203.9z"/>
	</g>
</g>
</svg>
